<svg width="135" height="33" viewBox="0 0 135 33" fill="none" xmlns="http://www.w3.org/2000/svg">
<path fill-rule="evenodd" clip-rule="evenodd" d="M56.1588 26.8736C51.0039 30.5542 43.535 32.5203 37.097 32.5203C28.0702 32.5203 19.9597 29.2969 13.7967 23.9246C13.3156 23.5131 13.7509 22.9187 14.3236 23.2616C20.9678 26.9879 29.1699 29.2512 37.624 29.2512C43.3288 29.2512 49.6293 28.1081 55.4028 25.7306C56.2963 25.3419 57.0295 26.2564 56.1588 26.8736Z" fill="#FF9900"/>
<path fill-rule="evenodd" clip-rule="evenodd" d="M57.1669 24.3592C56.5713 23.5819 53.1575 23.9934 51.6454 24.1763C51.1872 24.222 51.1185 23.8334 51.5309 23.5362C54.2343 21.6158 58.679 22.1645 59.1831 22.8046C59.71 23.4676 59.0456 27.9712 56.5025 30.1201C56.113 30.4402 55.7465 30.2802 55.9068 29.8458C56.5025 28.3827 57.7855 25.1364 57.1669 24.3592Z" fill="#FF9900"/>
<path fill-rule="evenodd" clip-rule="evenodd" d="M51.76 7.73896V5.65862C51.76 5.33856 51.9891 5.13281 52.264 5.13281H61.2451C61.5429 5.13281 61.772 5.36142 61.772 5.65862V7.44177C61.772 7.73897 61.52 8.1276 61.0847 8.74485L56.4338 15.6489C58.1521 15.6031 59.985 15.8775 61.5658 16.7919C61.9095 16.9977 62.024 17.2949 62.0469 17.6149V19.8324C62.0469 20.1296 61.7262 20.4954 61.3825 20.3125C58.6103 18.8037 54.9446 18.6437 51.8745 20.3354C51.5538 20.5183 51.233 20.1525 51.233 19.8553V17.7292C51.233 17.3863 51.233 16.8148 51.5767 16.289L56.9837 8.24191H52.2869C52.012 8.26477 51.7829 8.05902 51.76 7.73896Z" fill="white"/>
<path fill-rule="evenodd" clip-rule="evenodd" d="M19.2953 21.2951H16.6376C16.3856 21.2723 16.1794 21.0665 16.1565 20.8151V5.97827C16.1565 5.68107 16.3856 5.45246 16.6834 5.45246H19.1807C19.4327 5.47532 19.6389 5.68108 19.6619 5.95541V7.89859H19.7077C20.3492 6.02399 21.5864 5.15527 23.2359 5.15527C24.9084 5.15527 25.9623 6.02399 26.6955 7.89859C27.337 6.02399 28.8262 5.15527 30.3841 5.15527C31.5068 5.15527 32.721 5.65821 33.4771 6.7784C34.3248 8.03576 34.1415 9.84178 34.1415 11.4192V20.7693C34.1415 21.0665 33.9124 21.2951 33.6375 21.2951H30.9569C30.682 21.2723 30.4758 21.0437 30.4758 20.7693V12.9051C30.4758 12.2879 30.5216 10.7105 30.407 10.1161C30.2008 9.11022 29.6052 8.83589 28.8262 8.83589C28.1847 8.83589 27.4974 9.29311 27.2224 10.0475C26.9475 10.8019 26.9704 12.0364 26.9704 12.8823V20.7465C26.9704 21.0437 26.7413 21.2723 26.4664 21.2723H23.7858C23.5109 21.2494 23.3047 21.0208 23.3047 20.7465V12.8823C23.3047 11.2363 23.5567 8.79017 21.6551 8.79017C19.7306 8.79017 19.7993 11.1677 19.7993 12.8823V20.7465C19.8222 21.0665 19.5931 21.2951 19.2953 21.2951Z" fill="white"/>
<path fill-rule="evenodd" clip-rule="evenodd" d="M70.1345 8.10474C68.0954 8.10474 67.958 10.9624 67.958 12.7227C67.958 14.5058 67.9351 18.3007 70.1116 18.3007C72.2652 18.3007 72.3569 15.2374 72.3569 13.3628C72.3569 12.1283 72.311 10.6652 71.9445 9.49926C71.6466 8.49338 71.0051 8.10474 70.1345 8.10474ZM70.1116 5.13281C74.2355 5.13281 76.4579 8.74485 76.4579 13.3399C76.4579 17.7749 73.9835 21.2955 70.1116 21.2955C66.0564 21.2955 63.8569 17.6835 63.8569 13.1799C63.8569 8.6534 66.0793 5.13281 70.1116 5.13281Z" fill="white"/>
<path fill-rule="evenodd" clip-rule="evenodd" d="M82.2543 21.2955H79.6425C79.3676 21.2727 79.1614 21.0441 79.1614 20.7697V5.93295C79.1843 5.65862 79.3905 5.45287 79.6654 5.45287H82.094C82.3231 5.47573 82.5064 5.63575 82.5522 5.86436V8.1276H82.598C83.3312 6.09298 84.3621 5.13281 86.1721 5.13281C87.3405 5.13281 88.509 5.61289 89.2421 6.87025C89.9295 8.05902 89.9295 10.0479 89.9295 11.4882V20.8155C89.9066 21.0898 89.6775 21.2727 89.4254 21.2727H86.7907C86.5387 21.2498 86.3554 21.0669 86.3325 20.8155V12.7684C86.3325 11.1453 86.5158 8.76771 84.6829 8.76771C84.0414 8.76771 83.4457 9.22493 83.1708 9.95648C82.8042 10.8709 82.7584 11.7625 82.7584 12.7684V20.7469C82.7584 21.0669 82.5293 21.2955 82.2543 21.2955Z" fill="white"/>
<path fill-rule="evenodd" clip-rule="evenodd" d="M48.0256 21.0665C47.8423 21.2266 47.5674 21.2494 47.3612 21.1351C46.4218 20.3578 46.2614 19.9921 45.7345 19.2605C44.1766 20.8379 43.0768 21.318 41.0836 21.318C38.7009 21.318 36.8451 19.8549 36.8451 16.9058C36.8451 14.6197 38.0823 13.0423 39.8464 12.2879C41.3814 11.6249 43.5121 11.4878 45.1617 11.3049V10.9391C45.1617 10.2761 45.2076 9.476 44.8181 8.88161C44.4744 8.35581 43.81 8.15006 43.2372 8.15006C42.1604 8.15006 41.1982 8.69873 40.969 9.84178C40.9232 10.0932 40.7399 10.3447 40.4879 10.3676L37.7615 10.0704C37.5324 10.0247 37.2804 9.84178 37.3491 9.476C37.9677 6.13829 40.969 5.15527 43.6725 5.15527C45.0472 5.15527 46.8342 5.52105 47.9339 6.57265C49.3086 7.85287 49.1711 9.56745 49.1711 11.442V15.8542C49.1711 17.1802 49.721 17.7517 50.2479 18.4832C50.4312 18.7347 50.477 19.0548 50.2479 19.2376C49.6293 19.672 48.5984 20.5636 48.0256 21.0665ZM45.1846 14.1625C45.1846 15.2598 45.2075 16.1743 44.6577 17.1573C44.1995 17.9574 43.4892 18.4375 42.7103 18.4375C41.6335 18.4375 40.992 17.6145 40.992 16.38C40.992 13.9796 43.1456 13.5224 45.1846 13.5224V14.1625Z" fill="white"/>
<path fill-rule="evenodd" clip-rule="evenodd" d="M12.0097 21.0669C11.8264 21.227 11.5515 21.2498 11.3453 21.1355C10.406 20.3582 10.2456 19.9925 9.71863 19.2609C8.16069 20.8383 7.06097 21.3184 5.06773 21.3184C2.685 21.3184 0.829224 19.8553 0.829224 16.9062C0.829224 14.6201 2.06641 13.0427 3.83054 12.2883C5.36557 11.6253 7.49628 11.4882 9.14586 11.3053V10.9395C9.14586 10.2765 9.19168 9.4764 8.8022 8.88201C8.45853 8.35621 7.79412 8.15046 7.22135 8.15046C6.14454 8.15046 5.18228 8.69913 4.95317 9.84218C4.90735 10.0936 4.72407 10.3451 4.47205 10.368L1.74566 10.0708C1.51655 10.0251 1.26453 9.84218 1.33326 9.4764C1.95185 6.1387 4.95318 5.13281 7.63374 5.13281C9.00839 5.13281 10.7954 5.49859 11.8952 6.55019C13.2698 7.83041 13.1323 9.54498 13.1323 11.4196V15.8318C13.1323 17.1577 13.6822 17.7292 14.2092 18.4608C14.3924 18.7122 14.4383 19.0323 14.2092 19.2152C13.6135 19.6724 12.5825 20.564 12.0097 21.0669ZM9.16877 14.1629C9.16877 15.2602 9.19168 16.1747 8.64182 17.1577C8.1836 17.9578 7.47337 18.4379 6.6944 18.4379C5.61759 18.4379 4.97609 17.6149 4.97609 16.3804C4.97609 13.98 7.12971 13.5228 9.16877 13.5228V14.1629Z" fill="white"/>
<path fill-rule="evenodd" clip-rule="evenodd" d="M112.451 9.2479C111.672 10.1852 111.305 11.4654 111.305 13.1114C111.305 14.7574 111.672 16.0605 112.405 17.0206C113.253 18.0951 114.49 18.6438 116.162 18.6438C117.72 18.6438 118.912 18.118 119.782 17.0435C120.538 16.0833 120.928 14.826 120.928 13.2943V13.02C120.928 11.4197 120.47 10.1166 119.645 9.1336C118.774 8.12771 117.652 7.64763 116.277 7.64763C114.582 7.64763 113.299 8.17343 112.451 9.2479ZM123.265 1.20083V19.5353C123.265 19.8097 123.013 20.0154 122.715 20.0154H121.592C121.272 20.0154 121.02 19.7868 121.02 19.5125V17.7522C119.943 19.5125 118.202 20.3812 115.888 20.3812C113.619 20.3812 111.855 19.6268 110.595 18.1866C109.427 16.8606 108.854 15.146 108.854 13.0657C108.854 11.0311 109.427 9.38507 110.595 8.05913C111.855 6.57317 113.551 5.84161 115.773 5.84161C117.995 5.84161 119.691 6.80178 120.882 8.74496V1.10939C120.882 0.835055 121.134 0.606445 121.455 0.606445H122.646C122.99 0.629306 123.265 0.880779 123.265 1.20083Z" fill="white"/>
<path fill-rule="evenodd" clip-rule="evenodd" d="M104.844 14.3001C104.844 15.4203 104.317 16.4261 103.287 17.2949C102.233 18.1864 101.041 18.6437 99.6895 18.6437C98.796 18.6437 98.0858 18.415 97.5359 18.0035C96.986 17.5463 96.734 17.0205 96.734 16.3576C96.734 14.2544 98.3378 13.2027 101.545 13.1342L104.844 13.0884V14.3001ZM105.784 6.75594C104.776 5.65862 103.287 5.13281 101.247 5.13281C100.629 5.13281 100.079 5.17854 99.552 5.26998C98.0858 5.45287 96.734 6.11584 95.7259 6.73308C95.5426 6.84739 95.4739 7.076 95.5656 7.25889L95.978 8.10474C96.0696 8.31049 96.3445 8.40194 96.5507 8.28763C97.513 7.76183 98.8189 7.30461 99.9644 7.05313C100.308 6.98455 100.698 6.96169 101.11 6.96169C103.607 6.96169 104.844 8.17332 104.844 10.5966V11.351L101.408 11.3967C99.2542 11.4196 97.5817 11.7168 96.4133 12.5169C95.0844 13.3628 94.4429 14.7116 94.4429 16.3576C94.4429 17.5235 94.8782 18.5065 95.7718 19.2609C96.6195 19.9925 97.765 20.3582 99.2084 20.3582C100.537 20.3582 101.729 20.061 102.782 19.4667C103.676 18.9637 104.409 18.3236 104.959 17.5235V19.4209C104.959 19.7181 105.211 19.9696 105.509 19.9696H106.494C106.792 19.9696 107.044 19.7181 107.044 19.4209V10.6652C107.067 9.01918 106.632 7.71611 105.784 6.75594Z" fill="white"/>
<path fill-rule="evenodd" clip-rule="evenodd" d="M125.075 17.706C125.075 17.3859 125.441 17.1802 125.716 17.363C126.839 18.026 128.03 18.3461 129.313 18.3461C131.329 18.3461 132.704 17.6831 132.704 16.38C132.704 15.8314 132.475 15.3513 132.04 15.0084C131.604 14.6426 130.344 14.2082 128.993 13.7281C127.366 13.088 126.312 12.4479 125.831 11.8078C125.35 11.1677 125.098 10.4133 125.098 9.52172C125.098 8.24151 125.648 7.09846 126.747 6.32118C127.847 5.54391 129.199 5.15527 130.802 5.15527C131.948 5.15527 133.025 5.45246 134.01 5.81824C134.17 5.88682 134.285 6.02399 134.285 6.20688V7.69284C134.285 8.0129 133.964 8.19578 133.666 8.05862C132.727 7.6014 131.696 7.23562 130.55 7.23562C129.726 7.23562 128.809 7.41851 128.282 7.76143C127.755 8.10434 127.389 8.72159 127.389 9.29311C127.389 9.86464 127.572 10.3219 127.962 10.6419C128.328 10.962 129.519 11.3735 130.802 11.8764C132.429 12.4708 133.552 13.1109 134.125 13.751C134.697 14.3911 134.995 15.1913 134.995 16.1514C134.995 17.4774 134.445 18.529 133.346 19.2834C132.246 20.0378 130.825 20.4264 129.061 20.4264C127.641 20.4264 126.404 20.1749 125.327 19.6949C125.166 19.6263 125.075 19.4891 125.075 19.3062V17.706Z" fill="white"/>
</svg>
