<svg width="66" height="81" viewBox="0 0 66 81" fill="none" xmlns="http://www.w3.org/2000/svg">
<path d="M22.4276 7.5185C23.0496 5.891 23.9049 4.39267 25.1748 3.1785C30.2544 -1.75567 38.6513 -0.515669 42.0981 5.68433C44.6898 10.386 47.4369 14.9843 50.1063 19.6343C54.5639 27.3585 59.0733 35.0827 63.4791 42.8327C67.1852 49.3169 63.1681 57.506 55.8079 58.6169C51.2984 59.2885 47.0741 57.2219 44.7416 53.1919C40.8282 46.3977 36.889 39.6035 32.9756 32.8352C32.8978 32.6802 32.7942 32.551 32.6905 32.4218C32.2759 32.086 32.0944 31.5952 31.8353 31.156C30.0989 28.1077 28.3107 25.0852 26.5743 22.0627C25.4599 20.0993 24.2936 18.1618 23.1792 16.1985C22.1685 14.4418 21.702 12.5302 21.7538 10.5152C21.8316 9.48184 21.9612 8.4485 22.4276 7.5185Z" fill="#3C8BD9"/>
<path d="M22.4277 7.51855C22.1944 8.44856 21.9871 9.37856 21.9353 10.3602C21.8575 12.5302 22.4018 14.5452 23.4902 16.4311C26.341 21.3136 29.1918 26.2219 32.0167 31.1302C32.2759 31.5694 32.4832 32.0086 32.7424 32.4219C31.1874 35.1086 29.6324 37.7694 28.0515 40.4561C25.8745 44.2019 23.6976 47.9736 21.4947 51.7194C21.391 51.7194 21.3651 51.6677 21.3392 51.5902C21.3133 51.3836 21.391 51.2027 21.4428 50.9961C22.5054 47.1211 21.6243 43.6852 18.9549 40.7402C17.3222 38.9577 15.2488 37.9502 12.8645 37.6144C9.75458 37.1752 7.00745 37.9761 4.54539 39.9136C4.10482 40.2494 3.81974 40.7402 3.30141 40.9986C3.19774 40.9986 3.14591 40.9469 3.12 40.8694C4.36398 38.7252 5.58205 36.5811 6.82603 34.4369C11.9575 25.5502 17.0889 16.6636 22.2463 7.80272C22.2981 7.69939 22.3758 7.62189 22.4277 7.51855Z" fill="#FABC04"/>
<path d="M3.2236 40.9469C3.71601 40.5077 4.1825 40.0427 4.70083 39.6294C10.9985 34.6694 20.458 38.2602 21.8315 46.1136C22.1684 47.9994 21.987 49.8077 21.4169 51.6161C21.3909 51.7711 21.365 51.9002 21.3132 52.0552C21.08 52.4686 20.8726 52.9077 20.6135 53.3211C18.3069 57.1186 14.9119 59.0044 10.4543 58.7202C5.34873 58.3586 1.3317 54.5352 0.631961 49.4719C0.295049 47.0177 0.787459 44.7186 2.05736 42.6002C2.31652 42.1352 2.62752 41.7219 2.9126 41.2569C3.04218 41.1535 2.99035 40.9469 3.2236 40.9469Z" fill="#34A852"/>
<path d="M3.22362 40.9471C3.11995 41.0504 3.11995 41.2312 2.93854 41.2571C2.91262 41.0762 3.01629 40.9729 3.11995 40.8438L3.22362 40.9471Z" fill="#FABC04"/>
<path d="M21.3133 52.0564C21.2096 51.8755 21.3133 51.7464 21.4169 51.6172C21.4428 51.643 21.4947 51.6947 21.5206 51.7205L21.3133 52.0564Z" fill="#E1C025"/>
<path d="M5.53015 67.4014C2.6016 67.4014 0.165466 69.7522 0.165466 72.6455C0.165466 75.5389 2.6016 77.8639 5.53015 77.8639C7.11104 77.8639 8.27728 77.3472 9.21027 76.3914C10.1692 75.4355 10.4543 74.118 10.4543 73.0589C10.4543 72.723 10.4283 72.413 10.3765 72.1547H5.53015V73.5755H8.97702C8.87335 74.3764 8.61419 74.9705 8.19953 75.3839C7.70712 75.8747 6.90371 76.443 5.53015 76.443C3.40501 76.443 1.74636 74.738 1.74636 72.6455C1.74636 70.553 3.40501 68.848 5.53015 68.848C6.67047 68.848 7.5257 69.2872 8.12178 69.8814L9.13252 68.8739C8.27728 68.0472 7.13696 67.4014 5.53015 67.4014ZM14.3158 71.1472C12.4757 71.1472 10.9467 72.568 10.9467 74.5572C10.9467 76.5205 12.4498 77.9672 14.3158 77.9672C16.1818 77.9672 17.6849 76.5205 17.6849 74.5572C17.6849 72.5939 16.1558 71.1472 14.3158 71.1472ZM14.3158 76.6239C13.305 76.6239 12.4239 75.7714 12.4239 74.5572C12.4239 73.343 13.305 72.4905 14.3158 72.4905C15.3265 72.4905 16.2077 73.3172 16.2077 74.5572C16.2077 75.7714 15.3265 76.6239 14.3158 76.6239ZM21.6242 71.1472C19.7582 71.1472 18.2551 72.568 18.2551 74.5572C18.2551 76.5205 19.7582 77.9672 21.6242 77.9672C23.4643 77.9672 24.9933 76.5205 24.9933 74.5572C24.9933 72.5939 23.4902 71.1472 21.6242 71.1472ZM21.6242 76.6239C20.6135 76.6239 19.7323 75.7714 19.7323 74.5572C19.7323 73.343 20.6135 72.4905 21.6242 72.4905C22.6349 72.4905 23.5161 73.3172 23.5161 74.5572C23.5161 75.7714 22.6608 76.6239 21.6242 76.6239ZM28.9067 71.1472C27.2221 71.1472 25.6931 72.6197 25.6931 74.5314C25.6931 76.4172 27.2221 77.8897 28.9067 77.8897C29.7101 77.8897 30.3321 77.528 30.669 77.1147H30.7208V77.6055C30.7208 78.8972 30.047 79.5947 28.9326 79.5947C28.0255 79.5947 27.4813 78.9489 27.248 78.4064L25.9522 78.9489C26.315 79.853 27.2999 80.938 28.9326 80.938C30.669 80.938 32.1203 79.9047 32.1203 77.4247V71.3797H30.7208V71.9222H30.669C30.3321 71.5089 29.7101 71.1472 28.9067 71.1472ZM29.0363 76.5722C28.0255 76.5722 27.1703 75.7197 27.1703 74.5314C27.1703 73.343 28.0255 72.4647 29.0363 72.4647C30.047 72.4647 30.8245 73.343 30.8245 74.5314C30.8245 75.7197 30.047 76.5722 29.0363 76.5722ZM33.2088 67.8147H34.686V77.7864H33.2088V67.8147ZM38.6512 71.1472C36.8889 71.1472 35.4117 72.5164 35.4117 74.5572C35.4117 76.4689 36.863 77.9672 38.8067 77.9672C40.3876 77.9672 41.2947 77.0114 41.6575 76.4689L40.4913 75.6939C40.1025 76.2622 39.5583 76.6239 38.8067 76.6239C38.0292 76.6239 37.485 76.288 37.1481 75.5905L41.7353 73.7047L41.5798 73.3172C41.2947 72.568 40.4135 71.1472 38.6512 71.1472ZM36.8889 74.4539C36.8371 73.1364 37.9256 72.4647 38.6771 72.4647C39.2732 72.4647 39.7915 72.7489 39.947 73.188L36.8889 74.4539Z" fill="white"/>
<path d="M44.3268 77.63L47.7478 68.5625H49.0695L52.4905 77.63H51.1947L50.3135 75.1758H46.5038L45.6227 77.63H44.3268ZM46.8926 74.0908H49.9248L48.4475 70.0092H48.3957L46.8926 74.0908Z" fill="white"/>
<path d="M53.6828 76.8808C53.1126 76.235 52.8275 75.46 52.8275 74.53C52.8275 73.6258 53.1126 72.8508 53.6828 72.1792C54.2788 71.5333 54.9527 71.2233 55.782 71.2233C56.2485 71.2233 56.6631 71.3267 57.026 71.5075C57.4147 71.7142 57.6998 71.9467 57.9071 72.2825H57.9589L57.9071 71.43V68.5625H59.0734V77.63H57.9589V76.7775H57.9071C57.6998 77.0875 57.4147 77.3458 57.026 77.5525C56.6372 77.7592 56.2226 77.8367 55.782 77.8367C54.9527 77.8367 54.2529 77.5267 53.6828 76.8808ZM57.3629 76.1575C57.7516 75.7442 57.933 75.2017 57.933 74.53C57.933 73.8842 57.7516 73.3417 57.3629 72.9283C57 72.515 56.5336 72.3083 55.9634 72.3083C55.3932 72.3083 54.9267 72.515 54.5639 72.9283C54.1752 73.3417 53.9937 73.8842 53.9937 74.53C53.9937 75.1758 54.1752 75.7183 54.5639 76.1317C54.9527 76.545 55.4191 76.7517 55.9634 76.7517C56.5336 76.7775 57 76.5708 57.3629 76.1575Z" fill="white"/>
<path d="M64.464 77.2686C63.9975 77.6303 63.4014 77.837 62.6757 77.837C62.0537 77.837 61.5095 77.682 61.0171 77.3461C60.5506 77.0103 60.2137 76.597 60.0063 76.0545L61.043 75.6153C61.1985 75.977 61.4058 76.287 61.7168 76.4936C62.0019 76.7003 62.3388 76.8036 62.6757 76.8036C63.0386 76.8036 63.3496 76.7261 63.6087 76.5711C63.8679 76.4161 63.9715 76.2095 63.9715 76.0028C63.9715 75.6153 63.6605 75.3053 63.0645 75.1245L62.0019 74.8661C60.7838 74.5561 60.1878 73.9878 60.1878 73.1095C60.1878 72.5411 60.421 72.102 60.8875 71.7403C61.354 71.4045 61.9501 71.2236 62.6498 71.2236C63.1941 71.2236 63.6865 71.3528 64.153 71.6111C64.5935 71.8695 64.9045 72.2311 65.0859 72.6703L64.0493 73.1095C63.9197 72.8511 63.7383 72.6445 63.4791 72.4895C63.22 72.3345 62.909 72.257 62.5721 72.257C62.2611 72.257 62.0019 72.3345 61.7427 72.4895C61.5095 72.6445 61.3799 72.8253 61.3799 73.0578C61.3799 73.4195 61.7168 73.6778 62.3906 73.807L63.3236 74.0395C64.5676 74.3495 65.1637 74.9695 65.1637 75.8995C65.1896 76.442 64.9304 76.907 64.464 77.2686Z" fill="white"/>
</svg>
