<svg width="135" height="28" viewBox="0 0 135 28" fill="none" xmlns="http://www.w3.org/2000/svg">
<path d="M49.322 1.06738H54.3949L63.0176 16.6714L71.6404 1.06738H76.6022V26.7117H72.4641V7.05685L64.9004 20.6666H61.0172L53.4536 7.05685V26.7117H49.3154L49.322 1.06738Z" fill="white"/>
<path d="M89.9513 27.1662C88.0359 27.1662 86.3493 26.7405 84.898 25.8923C83.4598 25.0573 82.2831 23.8358 81.5019 22.3654C80.6912 20.8623 80.2827 19.1431 80.2827 17.2012C80.2827 15.2364 80.6782 13.4942 81.4724 11.9813C82.2667 10.4684 83.3683 9.28293 84.7771 8.42823C86.1859 7.57352 87.8071 7.14453 89.6376 7.14453C91.4549 7.14453 93.0206 7.57352 94.3346 8.43477C95.6453 9.29603 96.6586 10.5011 97.3647 12.0533C98.074 13.6056 98.427 15.423 98.427 17.5123V18.6486H84.3815C84.6365 20.2107 85.2706 21.442 86.2774 22.3392C87.2841 23.2365 88.5556 23.6852 90.0952 23.6852C91.3274 23.6852 92.3898 23.5018 93.2821 23.135C94.1744 22.7682 95.008 22.2115 95.7892 21.4682L97.9857 24.16C95.8055 26.1674 93.1252 27.1695 89.9513 27.1662ZM92.9716 11.9551C92.1054 11.0709 90.9712 10.6288 89.5656 10.6288C88.1993 10.6288 87.0553 11.0807 86.1336 11.9846C85.2118 12.8884 84.63 14.1033 84.3848 15.6293H94.4556C94.3346 14.0673 93.841 12.8426 92.9716 11.9551Z" fill="white"/>
<path d="M103.448 10.9957H99.6398V7.60633H103.448V2H107.439V7.60633H113.224V10.9957H107.439V19.5853C107.439 21.013 107.684 22.0348 108.171 22.6439C108.658 23.2529 109.495 23.5608 110.678 23.5608C111.126 23.5641 111.57 23.5444 112.015 23.4953C112.381 23.4527 112.783 23.3938 113.224 23.3217V26.675C112.724 26.8191 112.211 26.9305 111.695 27.0058C111.103 27.0942 110.508 27.1368 109.91 27.1335C105.602 27.1335 103.448 24.7757 103.448 20.0634V10.9957Z" fill="white"/>
<path d="M134.026 26.7123H130.107V24.0368C129.43 25.0192 128.518 25.8183 127.453 26.3553C126.377 26.8989 125.158 27.1707 123.792 27.1707C122.108 27.1707 120.615 26.7417 119.314 25.8805C118.013 25.0192 116.99 23.8338 116.248 22.3274C115.502 20.821 115.13 19.0953 115.13 17.1533C115.13 15.2016 115.509 13.4726 116.264 11.9695C117.019 10.4664 118.068 9.29074 119.405 8.43604C120.742 7.58134 122.278 7.15234 124.011 7.15234C125.318 7.15234 126.488 7.4045 127.528 7.91208C128.551 8.40656 129.437 9.14665 130.11 10.0636V7.61081H134.029L134.026 26.7123ZM130.035 14.2945C129.607 13.2073 128.933 12.3493 128.012 11.7206C127.09 11.0918 126.024 10.7775 124.818 10.7775C123.109 10.7775 121.749 11.3505 120.736 12.5C119.722 13.6494 119.216 15.1983 119.216 17.1533C119.216 19.1182 119.703 20.677 120.68 21.8231C121.657 22.9725 122.981 23.5456 124.655 23.5456C125.887 23.5456 126.985 23.228 127.95 22.5927C128.897 21.977 129.626 21.0797 130.038 20.0286V14.2945H130.035Z" fill="white"/>
<path d="M11.8499 0.197266C11.8369 0.197266 11.8238 0.197266 11.8107 0.197266L11.7584 4.60832C11.7715 4.60832 11.7813 4.60832 11.7944 4.60832C14.6969 4.60832 16.9458 6.89735 21.839 15.1398L22.1364 15.6409L22.156 15.6736L24.8952 11.5638L24.8755 11.5311C24.2316 10.4832 23.6106 9.51712 23.019 8.63622C22.3293 7.61451 21.6723 6.70414 21.0316 5.88874C17.7956 1.76913 15.0892 0.197266 11.8499 0.197266Z" fill="url(#paint0_linear_2406_10100)"/>
<path d="M11.8106 0.197266C8.55498 0.213639 5.67856 2.31929 3.59969 5.54162C3.59315 5.55144 3.58662 5.56126 3.58008 5.57109L7.3946 7.64726C7.40114 7.63744 7.40768 7.62761 7.41421 7.61779C8.62689 5.79049 10.137 4.62469 11.755 4.60832C11.7681 4.60832 11.7779 4.60832 11.7909 4.60832L11.8498 0.197266C11.8367 0.197266 11.8236 0.197266 11.8106 0.197266Z" fill="url(#paint1_linear_2406_10100)"/>
<path d="M3.59974 5.54199C3.5932 5.55182 3.58666 5.56164 3.58013 5.57146C2.21383 7.69676 1.19727 10.3067 0.648139 13.1197C0.64487 13.1328 0.64487 13.1426 0.641602 13.1557L4.92681 14.1676C4.93008 14.1545 4.93008 14.1447 4.93335 14.1316C5.39096 11.6592 6.26369 9.36359 7.39465 7.64764C7.40119 7.63781 7.40772 7.62799 7.41426 7.61817L3.59974 5.54199Z" fill="url(#paint2_linear_2406_10100)"/>
<path d="M4.93335 14.1281L0.648137 13.1162C0.644868 13.1293 0.644868 13.1391 0.641599 13.1522C0.340883 14.6979 0.190525 16.273 0.187256 17.8482C0.187256 17.8613 0.187256 17.8744 0.187256 17.8875L4.58033 18.2804C4.58033 18.2673 4.58033 18.2542 4.58033 18.2411C4.57706 18.1495 4.57706 18.0578 4.57706 17.9628C4.58033 16.6889 4.69801 15.4151 4.92681 14.1608C4.93008 14.1543 4.93335 14.1412 4.93335 14.1281Z" fill="url(#paint3_linear_2406_10100)"/>
<path d="M4.71445 19.6527C4.636 19.2007 4.59024 18.7423 4.58043 18.2806C4.58043 18.2675 4.58043 18.2544 4.58043 18.2413L0.187354 17.8516C0.187354 17.8647 0.187354 17.8778 0.187354 17.8909V17.8941C0.184085 18.8143 0.262534 19.7345 0.429235 20.6416C0.432504 20.6547 0.432503 20.6646 0.435771 20.6777L4.72098 19.692C4.71771 19.6789 4.71771 19.6658 4.71445 19.6527Z" fill="url(#paint4_linear_2406_10100)"/>
<path d="M5.71789 21.9292C5.24066 21.4086 4.90072 20.6554 4.72422 19.6893C4.72095 19.6762 4.72095 19.6664 4.71768 19.6533L0.429199 20.639C0.432468 20.6521 0.432467 20.6619 0.435735 20.675C0.759333 22.3779 1.39672 23.7958 2.30541 24.8667C2.31195 24.8765 2.32175 24.8863 2.32829 24.8962L5.74077 21.9555C5.73423 21.9489 5.72443 21.9391 5.71789 21.9292Z" fill="url(#paint5_linear_2406_10100)"/>
<path d="M18.4166 9.73047C15.8344 13.6929 14.2687 16.1784 14.2687 16.1784C10.8268 21.5751 9.63702 22.7835 7.72159 22.7835C6.92077 22.7835 6.25396 22.4986 5.74405 21.955C5.73424 21.9452 5.72771 21.9354 5.7179 21.9288L2.30542 24.8695C2.31196 24.8793 2.32176 24.8892 2.33157 24.899C3.58673 26.3628 5.36162 27.1782 7.55489 27.1782C10.8758 27.1782 13.262 25.6129 17.5079 18.1924C17.5079 18.1924 19.2763 15.0683 20.4955 12.9135C19.7372 11.6953 19.0508 10.6408 18.4166 9.73047Z" fill="#0082FB"/>
<path d="M23.0223 3.47559C23.0125 3.48541 23.0059 3.49524 22.9961 3.50506C22.2966 4.26152 21.6396 5.06056 21.0349 5.89234C21.6723 6.70774 22.3326 7.62139 23.0223 8.63982C23.8329 7.38561 24.5912 6.37045 25.3332 5.59434C25.343 5.58451 25.3495 5.57468 25.3593 5.56813L23.0223 3.47559Z" fill="url(#paint6_linear_2406_10100)"/>
<path d="M35.5608 3.08557C33.7598 1.26483 31.6123 0.197266 29.3144 0.197266C26.8923 0.197266 24.8559 1.52353 23.0189 3.47526C23.0091 3.48509 23.0026 3.49491 22.9928 3.50474L25.3299 5.59401C25.3397 5.58419 25.3462 5.57436 25.356 5.56781C26.5654 4.30704 27.7389 3.6783 29.0366 3.6783C30.4355 3.6783 31.743 4.33652 32.874 5.48922C32.8838 5.49904 32.8903 5.50559 32.9001 5.51541L35.5869 3.11505C35.5804 3.10522 35.5706 3.0954 35.5608 3.08557Z" fill="#0082FB"/>
<path d="M40.7709 17.2717C40.6696 11.4263 38.6234 6.19985 35.5901 3.11507C35.5803 3.10524 35.5737 3.09869 35.5639 3.08887L32.8771 5.49252C32.8869 5.50234 32.8934 5.50889 32.9032 5.51871C35.188 7.86669 36.7537 12.2286 36.8943 17.2717C36.8943 17.2848 36.8943 17.2979 36.8943 17.311H40.7709C40.7709 17.2946 40.7709 17.2848 40.7709 17.2717Z" fill="url(#paint7_linear_2406_10100)"/>
<path d="M40.771 17.3078C40.771 17.2948 40.771 17.2817 40.771 17.2686H36.8944C36.8944 17.2817 36.8944 17.2948 36.8944 17.3078C36.9009 17.5436 36.9042 17.7827 36.9042 18.0217C36.9042 19.3971 36.6983 20.5073 36.2799 21.3096C36.2733 21.3227 36.2668 21.3325 36.2603 21.3456L39.1497 24.3518C39.1563 24.342 39.1628 24.3289 39.1726 24.319C40.2219 22.7013 40.771 20.4516 40.771 17.7237C40.7743 17.5862 40.7743 17.4454 40.771 17.3078Z" fill="url(#paint8_linear_2406_10100)"/>
<path d="M36.2832 21.3135C36.2766 21.3266 36.2701 21.3364 36.2636 21.3495C35.9007 22.0274 35.3875 22.476 34.7109 22.6758L36.0282 26.8281C36.2014 26.7692 36.3714 26.7037 36.5381 26.6283C36.5872 26.6054 36.6362 26.5825 36.6852 26.5596C36.7146 26.5465 36.7408 26.5334 36.7702 26.5203C37.6495 26.0782 38.4045 25.4232 38.9733 24.6209C39.0092 24.5718 39.0452 24.5194 39.0811 24.467C39.1073 24.431 39.1302 24.395 39.1563 24.3557C39.1629 24.3459 39.1694 24.3328 39.1792 24.3229L36.2832 21.3135Z" fill="url(#paint9_linear_2406_10100)"/>
<path d="M33.874 22.7866C33.4556 22.7964 33.0438 22.7145 32.6614 22.5508L31.3114 26.8014C32.0697 27.0601 32.8771 27.178 33.7792 27.178C34.5572 27.1845 35.3286 27.0633 36.064 26.8145L34.7468 22.6621C34.4657 22.7473 34.1682 22.7866 33.874 22.7866Z" fill="url(#paint10_linear_2406_10100)"/>
<path d="M31.1742 21.3322C31.1644 21.3224 31.1579 21.3126 31.1481 21.3027L28.0428 24.5316C28.0527 24.5414 28.0592 24.5513 28.069 24.5578C29.1477 25.7072 30.1773 26.4211 31.3442 26.8108L32.6909 22.5635C32.2039 22.3539 31.7266 21.9708 31.1742 21.3322Z" fill="url(#paint11_linear_2406_10100)"/>
<path d="M31.148 21.3024C30.2165 20.2185 29.0659 18.4174 27.2551 15.4996L24.8951 11.5601L24.8755 11.5273L22.1364 15.6371L22.156 15.6699L23.8295 18.4861C25.4508 21.2009 26.7713 23.1624 28.0461 24.528C28.0559 24.5378 28.0624 24.5476 28.0722 24.5575L31.1742 21.3286C31.1644 21.322 31.1579 21.3122 31.148 21.3024Z" fill="url(#paint12_linear_2406_10100)"/>
<defs>
<linearGradient id="paint0_linear_2406_10100" x1="23.0617" y1="14.0109" x2="13.9665" y2="2.09662" gradientUnits="userSpaceOnUse">
<stop offset="0.0006" stop-color="#0867DF"/>
<stop offset="0.4539" stop-color="#0668E1"/>
<stop offset="0.8591" stop-color="#0064E0"/>
</linearGradient>
<linearGradient id="paint1_linear_2406_10100" x1="5.37898" y1="6.28737" x2="11.6133" y2="1.55575" gradientUnits="userSpaceOnUse">
<stop offset="0.1323" stop-color="#0064DF"/>
<stop offset="0.9988" stop-color="#0064E0"/>
</linearGradient>
<linearGradient id="paint2_linear_2406_10100" x1="2.73439" y1="13.2286" x2="5.23592" y2="6.93336" gradientUnits="userSpaceOnUse">
<stop offset="0.0147" stop-color="#0072EC"/>
<stop offset="0.6881" stop-color="#0064DF"/>
</linearGradient>
<linearGradient id="paint3_linear_2406_10100" x1="2.3937" y1="17.7759" x2="2.68316" y2="13.9309" gradientUnits="userSpaceOnUse">
<stop offset="0.0731" stop-color="#007CF6"/>
<stop offset="0.9943" stop-color="#0072EC"/>
</linearGradient>
<linearGradient id="paint4_linear_2406_10100" x1="2.55275" y1="19.8645" x2="2.34568" y2="18.3241" gradientUnits="userSpaceOnUse">
<stop offset="0.0731" stop-color="#007FF9"/>
<stop offset="1" stop-color="#007CF6"/>
</linearGradient>
<linearGradient id="paint5_linear_2406_10100" x1="2.43233" y1="20.2691" x2="3.72259" y2="23.005" gradientUnits="userSpaceOnUse">
<stop offset="0.0731" stop-color="#007FF9"/>
<stop offset="1" stop-color="#0082FB"/>
</linearGradient>
<linearGradient id="paint6_linear_2406_10100" x1="22.2546" y1="7.03164" x2="23.9602" y2="4.67337" gradientUnits="userSpaceOnUse">
<stop offset="0.2799" stop-color="#007FF8"/>
<stop offset="0.9141" stop-color="#0082FB"/>
</linearGradient>
<linearGradient id="paint7_linear_2406_10100" x1="35.2188" y1="3.97199" x2="38.7874" y2="17.096" gradientUnits="userSpaceOnUse">
<stop stop-color="#0082FB"/>
<stop offset="0.9995" stop-color="#0081FA"/>
</linearGradient>
<linearGradient id="paint8_linear_2406_10100" x1="39.6399" y1="17.598" x2="37.3817" y2="22.1603" gradientUnits="userSpaceOnUse">
<stop offset="0.0619" stop-color="#0081FA"/>
<stop offset="1" stop-color="#0080F9"/>
</linearGradient>
<linearGradient id="paint9_linear_2406_10100" x1="35.5931" y1="24.5836" x2="37.7035" y2="23.1466" gradientUnits="userSpaceOnUse">
<stop stop-color="#027AF3"/>
<stop offset="1" stop-color="#0080F9"/>
</linearGradient>
<linearGradient id="paint10_linear_2406_10100" x1="32.2826" y1="24.8629" x2="35.2148" y2="24.8629" gradientUnits="userSpaceOnUse">
<stop stop-color="#0377EF"/>
<stop offset="0.9994" stop-color="#0279F1"/>
</linearGradient>
<linearGradient id="paint11_linear_2406_10100" x1="29.7342" y1="23.2458" x2="31.8425" y2="24.4858" gradientUnits="userSpaceOnUse">
<stop offset="0.0019" stop-color="#0471E9"/>
<stop offset="1" stop-color="#0377EF"/>
</linearGradient>
<linearGradient id="paint12_linear_2406_10100" x1="23.3085" y1="14.095" x2="30.0636" y2="22.5857" gradientUnits="userSpaceOnUse">
<stop offset="0.2765" stop-color="#0867DF"/>
<stop offset="1" stop-color="#0471E9"/>
</linearGradient>
</defs>
</svg>
