<svg width="186" height="101" viewBox="0 0 186 101" fill="none" xmlns="http://www.w3.org/2000/svg">
<path d="M41.8829 48.7825C43.1758 49.2447 44.4688 49.6584 45.6885 50.145C45.6641 52.7971 45.6885 55.4735 45.7129 58.1255C45.6885 58.2229 45.6641 58.3202 45.6153 58.3932C45.5178 58.4905 45.3958 58.5878 45.2982 58.6608C39.2971 62.1401 33.1983 65.5465 27.2216 69.0744C27.1728 69.0501 27.124 69.0258 27.0752 69.0014C26.9532 68.9528 26.8556 68.9041 26.7337 68.8311C24.3917 67.5659 22.0742 66.2764 19.7567 64.9382V31.9941L27.1972 34.6705L27.1728 60.6559L37.7114 54.6705C37.565 54.5489 37.809 54.7922 37.6382 54.7192C36.0525 53.9893 33.979 52.9674 32.4421 52.1158C31.5639 49.634 31.1491 48.8798 29.2463 44.3542" fill="#008371"/>
<path d="M57.0637 62.1209C56.9126 61.9481 56.837 61.7259 56.837 61.5037C56.9378 54.1474 56.9378 46.7911 56.837 39.4348C59.2558 39.4348 61.6997 39.4102 64.1437 39.4102C66.4869 39.4348 68.9309 40.8419 69.7371 43.0636C70.5182 45.1866 69.4851 47.507 67.9986 48.9635C67.4947 49.4325 66.9908 49.63 66.3357 49.9015C65.857 50.099 66.4113 50.2718 66.9404 50.2718C68.8553 50.2965 70.619 52.6169 70.9213 54.3449C71.2992 56.4926 70.8709 58.3193 69.3844 59.8992C68.4269 60.8619 67.2176 61.5531 65.9074 61.874C63.0855 62.5405 59.936 62.1949 57.0637 62.1209ZM59.5581 49.1609C61.0698 49.2597 62.7075 49.2597 64.1689 48.8894C65.5798 48.5191 66.9404 47.2849 67.0664 45.8037C67.1672 44.7669 67.0412 43.0636 65.9074 42.5205C63.6902 41.4837 62.0021 41.78 59.5833 41.78L59.5581 49.1609ZM59.5581 59.6029C62.0777 59.8251 66.5625 60.1707 67.8474 57.4059C68.3262 56.3691 68.4773 54.2215 67.6459 53.3081C65.605 51.0371 62.5312 51.3826 59.6085 51.5061L59.5581 59.6029Z" fill="white"/>
<path d="M102.283 68.9783C101.101 68.8329 99.9193 68.518 98.8357 68.0334L99.476 65.7802C102.037 67.0643 104.303 67.3792 107.037 66.4101C108.416 65.9256 109.204 64.4476 109.598 63.1878C109.795 62.4367 110.016 60.5469 109.844 59.8443L109.746 59.2143C108.637 60.7892 107.8 61.3464 106.027 61.9279C105.731 62.0248 103.293 62.0733 102.948 62.0006C100.338 61.4918 98.7125 59.4809 97.9983 57.1307C97.4565 55.3378 97.555 53.2058 97.9737 51.4371C98.5155 49.1112 99.9193 46.8337 102.283 46.01C103.49 45.5739 104.771 45.5496 106.027 45.6223C106.125 45.6223 107.603 46.1069 107.726 46.1796C108.613 46.6641 109.352 47.4637 109.967 48.239L109.918 45.9131L112.455 45.9373C112.479 50.7829 112.331 55.6286 112.43 60.4984C112.455 61.6372 112.331 62.7517 112.061 63.8419C111.519 65.8771 110.041 67.5488 108.071 68.3726C106.273 69.1237 104.204 69.1721 102.283 68.9783ZM103.638 59.7474C105.042 60.1108 106.519 59.8685 107.726 59.069C109.77 57.6395 109.943 55.1198 109.795 52.8181C109.721 51.4856 109.573 50.153 108.588 49.1354C107.677 48.1663 106.347 47.6575 104.993 47.7302C102.308 47.8029 100.707 50.1045 100.313 52.4789C100.215 53.3753 100.19 54.2718 100.239 55.1682C100.609 57.1065 101.495 59.1174 103.638 59.7474Z" fill="white"/>
<path d="M74.7719 42.1715C74.1745 41.6299 73.9907 40.6821 74.2665 39.8967C74.6111 38.9488 75.5302 38.5426 76.3343 38.9488C76.3573 38.9488 76.3573 38.9759 76.3803 38.9759C77.1845 39.4634 77.3912 40.4654 77.1155 41.4133C77.0236 41.6841 76.61 42.307 76.3803 42.3611C75.5531 42.4694 75.5072 42.6861 74.7719 42.1715Z" fill="white"/>
<path d="M94.0226 61.6349C93.293 61.6349 92.5885 61.6349 91.8588 61.6589C91.9091 58.0511 92.0601 54.3711 91.733 50.7632C91.5821 49.0796 90.0976 47.9491 88.4622 47.7567C86.6254 47.5162 84.99 48.5985 84.1849 50.1138C83.8578 50.8595 83.6565 51.6291 83.6062 52.4469C83.6313 55.5016 83.581 58.6043 83.6313 61.6349L80.9391 61.5868L80.9643 45.9528L83.581 45.9768C83.6313 46.6744 83.6062 47.3959 83.5307 48.0934C83.5055 48.4061 83.7823 48.4061 83.9836 48.1415C84.9648 46.6744 86.6254 45.7363 88.4622 45.6161C90.3492 45.4717 92.1356 45.9287 93.2427 47.444C94.0226 48.5264 94.4504 49.8012 94.5007 51.1C94.5762 54.5876 94.5007 58.0751 94.5258 61.5627C94.3497 61.5627 94.1736 61.6108 94.0226 61.6349Z" fill="white"/>
<path d="M76.7082 61.6344C76.0665 61.5852 75.4247 61.5852 74.7592 61.6344V45.5908L77.2312 45.6154C77.2312 50.652 77.2074 55.6887 77.2312 60.7008C77.2312 61.0201 77.2074 61.3396 77.1599 61.6589L76.7082 61.6344Z" fill="white"/>
<path d="M153.785 38.5557C154.524 38.5557 155.262 38.5558 155.976 38.5804L155.951 62.0771L153.367 62.1017C153.367 61.4866 153.367 60.8715 153.367 60.2564C153.391 59.7397 153.293 59.1492 153.072 59.6167C151.693 62.4954 147.927 62.9382 145.244 62.0771C143.103 61.4128 141.897 59.1738 141.38 57.1809C141.232 56.6642 141.109 54.3269 141.134 53.7856C141.207 52.7522 141.38 51.7188 141.675 50.7101C142.364 48.3235 144.21 46.3306 146.623 45.7893C149.306 45.1988 151.398 45.8139 153.096 47.9544C153.441 48.3727 153.392 47.8314 153.392 47.2901V38.5557H153.785ZM150.709 48.1267C149.749 47.7084 148.666 47.6346 147.632 47.9298C146.229 48.3481 144.998 49.2585 144.481 50.6855C143.62 53.1459 143.25 57.5746 145.589 59.3953C146.795 60.3302 148.124 60.527 149.675 60.158C151.324 59.7151 152.604 58.4357 153.072 56.8119C153.515 55.0158 153.564 53.1705 153.244 51.3744C153.022 49.9228 152.013 48.8156 150.709 48.1267Z" fill="white"/>
<path d="M160.699 62.1261C159.985 61.9785 159.271 61.7325 158.631 61.388L158.533 58.6078C160.33 59.6411 161.61 60.207 163.751 60.1332C164.834 60.1086 166.139 59.715 166.508 58.5832C166.852 57.6236 166.582 56.6887 165.794 56.172C164.293 55.1878 161.954 54.4251 160.33 53.5148C158.705 52.6044 158.237 50.3163 158.804 48.717C159.197 47.536 160.28 46.6749 161.363 46.1336C162.126 45.8137 162.939 45.5923 163.751 45.4939C165.376 45.3709 167 45.5923 168.526 46.1582L168.575 48.8892C166.729 47.5114 163.997 47.1178 162.053 48.3726C161.363 48.8154 161.191 49.7012 161.314 50.4393C161.388 50.8575 161.683 51.4234 162.053 51.6203C163.825 52.5798 165.72 53.2933 167.517 54.2775C168.822 54.991 169.314 56.5657 169.314 57.9435C169.314 60.0594 167.369 61.6587 165.474 62.0523C163.874 62.323 162.274 62.3476 160.699 62.1261Z" fill="white"/>
<path d="M127.666 62.1749C126.091 61.9043 124.786 60.7971 124.27 59.2717C123.605 57.2049 124.27 54.4001 126.313 53.3421C126.854 53.0469 127.42 52.8254 128.011 52.6532C130.079 52.2842 132.171 51.9643 134.263 51.7675C134.14 50.2174 133.894 48.6182 132.442 47.8555C132.048 47.634 130.522 47.5848 130.054 47.634C128.552 47.8062 127.125 48.4213 125.968 49.3809C125.673 49.6269 125.55 49.4301 125.599 49.0364V47.0681C125.796 46.8467 126.042 46.6499 126.313 46.5022C128.651 45.272 131.703 44.9768 134.14 45.9856C135.986 46.7483 136.724 48.938 136.774 50.7341C136.872 54.4493 136.749 58.2137 136.823 61.9289H134.165L134.214 59.6899C134.214 59.5177 133.918 59.8376 133.771 59.936C132.515 62.0519 129.906 62.5686 127.666 62.1749ZM128.676 60.0098C129.463 60.2066 130.275 60.182 131.063 59.9606C133.008 59.3209 134.115 57.4756 134.165 55.5319C134.189 54.966 134.165 54.4001 134.115 53.8342C132.392 54.0064 130.719 54.3017 129.02 54.6215C127.494 54.8922 126.362 56.3684 126.731 57.9185C127.002 58.9764 127.593 59.6161 128.676 60.0098Z" fill="white"/>
<path d="M38.0183 54.8607L32.6623 52.1751L29.6448 44.9727L45.7129 50.4904L38.0183 54.8607Z" fill="#065D51"/>
</svg>
