<svg width="138" height="51" viewBox="0 0 138 51" fill="none" xmlns="http://www.w3.org/2000/svg">
<path d="M27.6706 50.4805C25.5911 50.4805 23.5116 50.2407 21.5121 49.761C14.5539 48.1621 8.47539 43.8451 4.71632 37.7693C-3.12172 25.138 0.717321 8.50955 13.3542 0.674972C14.3939 0.0354141 15.6736 0.355191 16.3134 1.39447C16.9533 2.43375 16.6334 3.71287 15.5936 4.35243C4.95626 10.9878 1.75706 24.8982 8.31543 35.5308C11.5146 40.6473 16.5534 44.2448 22.3919 45.6039C28.2305 46.9629 34.3889 46.0036 39.5077 42.8058C40.5474 42.1663 41.8271 42.486 42.4669 43.5253C43.1068 44.5646 42.7868 45.8437 41.7471 46.4833C37.5881 49.1214 32.6294 50.4805 27.6706 50.4805Z" fill="#F04444"/>
<path d="M46.4523 43.5404C47.6891 43.5404 48.6917 42.5382 48.6917 41.3019C48.6917 40.0657 47.6891 39.0635 46.4523 39.0635C45.2155 39.0635 44.2128 40.0657 44.2128 41.3019C44.2128 42.5382 45.2155 43.5404 46.4523 43.5404Z" fill="#F04444"/>
<path d="M19.8788 22.5979C19.7188 17.6413 23.6379 13.5641 28.5966 13.4042C28.7566 13.4042 28.9166 13.4042 29.0765 13.4042C32.1957 13.3243 34.995 14.9232 36.6746 17.5614L33.7154 19.3201C32.7556 17.7212 30.996 16.7619 29.1565 16.8419C26.1173 16.682 23.5579 19.0004 23.3979 22.0383C23.3979 22.1981 23.3979 22.438 23.3979 22.5979C23.238 25.6358 25.5574 28.194 28.5167 28.3539C28.6766 28.3539 28.9166 28.3539 29.0765 28.3539C30.9161 28.4338 32.6756 27.4745 33.6354 25.8756L36.5947 27.6344C34.995 30.2726 32.1158 31.8715 28.9965 31.7915C24.0378 31.9514 19.9588 28.0341 19.7988 23.0775C19.8788 22.8377 19.8788 22.7578 19.8788 22.5979Z" fill="white"/>
<path d="M38.8341 13.0049H42.1133V31.3922H38.8341V13.0049Z" fill="white"/>
<path d="M51.3109 28.7533C52.4307 28.8332 53.4704 28.3536 54.1102 27.4742L56.7496 28.9931C55.4699 30.7519 53.3904 31.7912 51.2309 31.7112C46.992 31.7112 44.3527 28.8332 44.3527 25.0758C44.1927 21.5583 46.992 18.5204 50.5911 18.4404C50.7511 18.4404 50.911 18.4404 51.071 18.4404C54.8301 18.4404 57.4694 21.3984 57.4694 25.0758C57.4694 25.5555 57.3894 25.9552 57.3094 26.4349H47.7918C48.2717 28.1137 49.6313 28.7533 51.3109 28.7533ZM54.1902 23.8767C53.9503 22.3577 52.5906 21.3184 51.071 21.3184C49.4714 21.2385 48.0317 22.2778 47.7918 23.8767H54.1902Z" fill="white"/>
<path d="M71.0661 18.7617L66.2673 31.393H62.5882L57.7894 18.8417H61.3885L64.4277 27.6356L67.467 18.8417H71.0661V18.7617Z" fill="white"/>
<path d="M78.3443 28.7533C79.464 28.8332 80.5037 28.3536 81.1436 27.4742L83.7829 28.9931C82.5032 30.7519 80.4237 31.7912 78.2643 31.7112C74.0253 31.7112 71.386 28.8332 71.386 25.0758C71.226 21.5583 74.0253 18.5204 77.6244 18.4404C77.7844 18.4404 77.9444 18.4404 78.1043 18.4404C81.8634 18.4404 84.5027 21.3984 84.5027 25.0758C84.5027 25.5555 84.4227 25.9552 84.3428 26.4349H74.8251C75.305 28.1137 76.6647 28.7533 78.3443 28.7533ZM81.2235 23.8767C80.9836 22.3577 79.6239 21.3184 78.1043 21.3184C76.5047 21.2385 75.0651 22.2778 74.8251 23.8767H81.2235Z" fill="white"/>
<path d="M108.497 17.0823H103.698V31.3924H100.259V17.0823H95.54V13.7246H108.497V17.0823Z" fill="white"/>
<path d="M120.814 18.7604V31.3916H117.534V29.8727C116.495 31.0719 114.975 31.7914 113.455 31.7114C110.096 31.7114 107.297 28.8334 107.297 25.076C107.297 21.3186 110.096 18.4406 113.455 18.4406C115.055 18.3607 116.575 19.0802 117.534 20.2793V18.7604H120.814ZM117.614 25.076C117.694 23.2373 116.255 21.6384 114.415 21.5585C114.335 21.5585 114.255 21.5585 114.095 21.5585C112.256 21.4785 110.656 22.9975 110.656 24.8362C110.656 24.9161 110.656 24.9961 110.656 25.076C110.576 26.9147 112.016 28.5136 113.855 28.5936C113.935 28.5936 114.015 28.5936 114.095 28.5936C115.935 28.6735 117.534 27.2345 117.614 25.3159C117.614 25.3159 117.614 25.156 117.614 25.076Z" fill="white"/>
<path d="M137.29 25.0761C137.29 28.8335 134.49 31.7116 131.131 31.7116C129.532 31.7915 128.012 31.072 127.052 29.8728V36.4283H123.773V18.8405H127.052V20.3594C128.012 19.1602 129.532 18.4407 131.131 18.5207C134.49 18.4407 137.29 21.3187 137.29 25.0761ZM134.01 25.0761C134.09 23.2374 132.651 21.6385 130.811 21.5586C130.731 21.5586 130.651 21.5586 130.491 21.5586C128.652 21.4786 127.052 22.9976 127.052 24.8363C127.052 24.9163 127.052 24.9962 127.052 25.0761C126.972 26.9149 128.412 28.5138 130.251 28.5937C130.331 28.5937 130.411 28.5937 130.491 28.5937C132.331 28.6737 133.93 27.2347 134.01 25.316C134.01 25.316 134.01 25.1561 134.01 25.0761Z" fill="white"/>
<path d="M90.0214 31.3923H86.7422V18.4412H91.2211C94.1004 18.2814 96.5797 20.3599 96.8197 23.2379L93.6205 23.7176C93.3805 21.7989 92.0209 21.639 91.461 21.719H90.0214V31.3923Z" fill="white"/>
</svg>
