<svg width="124" height="36" viewBox="0 0 124 36" fill="none" xmlns="http://www.w3.org/2000/svg">
<mask id="mask0_2406_10184" style="mask-type:luminance" maskUnits="userSpaceOnUse" x="0" y="0" width="124" height="36">
<path d="M123.932 0.368164H0.503479V35.363H123.932V0.368164Z" fill="white"/>
</mask>
<g mask="url(#mask0_2406_10184)">
<path d="M13.8567 6.1748V16.0491H4.80103V6.1748H0.503418V29.7349H4.80103V20.1932H13.8567V29.7349H18.1799V6.1748H13.8567Z" fill="white"/>
</g>
<mask id="mask1_2406_10184" style="mask-type:luminance" maskUnits="userSpaceOnUse" x="0" y="0" width="124" height="36">
<path d="M123.932 0.368164H0.503479V35.363H123.932V0.368164Z" fill="white"/>
</mask>
<g mask="url(#mask1_2406_10184)">
<path d="M31.9425 22.1131C31.9425 23.0596 31.5588 23.9549 30.8937 24.62C30.2286 25.2852 29.3077 25.6689 28.3868 25.6689C27.4403 25.6689 26.5449 25.2852 25.8798 24.62C25.2147 23.9549 24.831 23.0596 24.831 22.1131V12.0342H20.738V22.1131C20.738 24.134 21.531 26.0782 22.9636 27.5107C24.3961 28.9432 26.3403 29.7362 28.3612 29.7362C30.3821 29.7362 32.3262 28.9432 33.7588 27.5107C35.1913 26.0782 35.9843 24.134 35.9843 22.1131V12.0342H31.9169V22.1131H31.9425Z" fill="white"/>
</g>
<mask id="mask2_2406_10184" style="mask-type:luminance" maskUnits="userSpaceOnUse" x="0" y="0" width="124" height="36">
<path d="M123.932 0.368164H0.503479V35.363H123.932V0.368164Z" fill="white"/>
</mask>
<g mask="url(#mask2_2406_10184)">
<path d="M62.1793 13.0569C62.1793 10.9848 63.5607 10.3453 65.0444 10.3453C66.2467 10.3453 67.8583 11.2662 68.8815 12.3918L71.5676 9.24531C70.2373 7.42906 67.5258 6.20117 65.3002 6.20117C60.8747 6.20117 57.6771 8.78485 57.6771 13.0825C57.6771 21.0638 67.4234 18.5312 67.4234 22.9823C67.4234 24.3637 66.0932 25.566 64.5583 25.566C62.1537 25.566 61.3607 24.3893 60.2607 23.1358L57.2933 26.2055C59.1863 28.5334 61.5398 29.7101 64.3281 29.7101C68.5234 29.7101 71.9257 27.0753 71.9257 22.9823C71.9257 14.1569 62.1793 16.894 62.1793 13.0569Z" fill="white"/>
</g>
<mask id="mask3_2406_10184" style="mask-type:luminance" maskUnits="userSpaceOnUse" x="0" y="0" width="124" height="36">
<path d="M123.932 0.368164H0.503479V35.363H123.932V0.368164Z" fill="white"/>
</mask>
<g mask="url(#mask3_2406_10184)">
<path d="M122.474 25.9495C120.069 25.9495 119.378 24.9007 119.378 23.3146V16.2543H123.139V12.6729H119.378V7.94043L115.234 9.80784V24.21C115.234 27.8936 117.767 29.761 121.272 29.761C121.809 29.761 122.371 29.7355 122.909 29.6331L123.906 25.9239C123.471 25.9239 122.934 25.9495 122.474 25.9495Z" fill="white"/>
</g>
<mask id="mask4_2406_10184" style="mask-type:luminance" maskUnits="userSpaceOnUse" x="0" y="0" width="124" height="36">
<path d="M123.932 0.368164H0.503479V35.363H123.932V0.368164Z" fill="white"/>
</mask>
<g mask="url(#mask4_2406_10184)">
<path d="M47.4702 12.1352C45.4493 12.1352 44.0423 12.7236 42.661 14.0538V6.30273H38.568V20.6793C38.568 26.0513 42.4563 29.735 46.8307 29.735C51.6911 29.735 55.9375 25.9745 55.9375 20.9351C55.9631 15.9468 52.0492 12.1352 47.4702 12.1352ZM47.4446 25.642C46.5237 25.642 45.6284 25.3606 44.8609 24.849C44.0935 24.3374 43.5051 23.6211 43.147 22.7769C42.7889 21.9327 42.7121 20.9862 42.8912 20.0909C43.0703 19.1956 43.5051 18.377 44.1702 17.7119C44.8098 17.0724 45.6539 16.6119 46.5493 16.4328C47.4446 16.2538 48.3911 16.3561 49.2353 16.6886C50.0795 17.0468 50.7957 17.6351 51.3073 18.4026C51.819 19.17 52.1004 20.0653 52.1004 20.9862C52.1004 22.2141 51.6143 23.3909 50.7446 24.2606C49.8492 25.1304 48.6725 25.642 47.4446 25.642Z" fill="white"/>
</g>
<mask id="mask5_2406_10184" style="mask-type:luminance" maskUnits="userSpaceOnUse" x="0" y="0" width="124" height="36">
<path d="M123.932 0.368164H0.503479V35.363H123.932V0.368164Z" fill="white"/>
</mask>
<g mask="url(#mask5_2406_10184)">
<path d="M91.8533 20.7315C91.8533 15.6665 87.6068 11.9316 82.7464 11.9316C78.3721 11.9316 74.4838 15.6153 74.4838 20.9873V35.3639H78.5767V27.5872C79.9325 28.9174 81.3395 29.5058 83.3604 29.5058C87.9394 29.5314 91.8533 25.7198 91.8533 20.7315ZM87.9905 20.6804C87.9905 21.6013 87.7092 22.4966 87.1975 23.264C86.6859 24.0315 85.9697 24.6198 85.1255 24.978C84.2813 25.3361 83.3348 25.4128 82.4395 25.2338C81.5441 25.0547 80.7255 24.6198 80.0604 23.9547C79.4209 23.3152 78.9604 22.471 78.7814 21.5757C78.6023 20.6804 78.7046 19.7339 79.0372 18.8897C79.3953 18.0455 79.9837 17.3292 80.7511 16.8176C81.5185 16.306 82.4139 16.0246 83.3348 16.0246C84.5627 16.0246 85.7394 16.5106 86.6092 17.3804C87.5045 18.2757 87.9905 19.4525 87.9905 20.6804Z" fill="white"/>
</g>
<mask id="mask6_2406_10184" style="mask-type:luminance" maskUnits="userSpaceOnUse" x="0" y="0" width="124" height="36">
<path d="M123.932 0.368164H0.503479V35.363H123.932V0.368164Z" fill="white"/>
</mask>
<g mask="url(#mask6_2406_10184)">
<path d="M105.053 11.7265V7.60795C105.59 7.35214 106.051 6.94284 106.383 6.4568C106.716 5.94518 106.869 5.35681 106.869 4.76845V4.66613C106.869 3.82195 106.537 3.02894 105.948 2.44058C105.36 1.85222 104.542 1.51966 103.723 1.51966H103.621C102.776 1.51966 101.983 1.85222 101.395 2.44058C100.807 3.02894 100.474 3.84754 100.474 4.66613V4.76845C100.474 5.35681 100.653 5.94518 100.96 6.4568C101.293 6.96842 101.753 7.35214 102.29 7.60795V11.7265C100.73 11.9567 99.2718 12.6218 98.0439 13.5939L86.7883 4.81961C86.865 4.53822 86.9162 4.23125 86.9162 3.92428C86.9162 3.20801 86.7115 2.5429 86.3278 1.95454C85.9441 1.36617 85.3813 0.905717 84.7418 0.649907C84.1023 0.368516 83.386 0.317353 82.6953 0.445258C82.0046 0.573163 81.3651 0.931298 80.8791 1.41734C80.393 1.90338 80.0349 2.5429 79.907 3.23359C79.7791 3.92428 79.8302 4.64055 80.1116 5.28007C80.3675 5.9196 80.8279 6.48238 81.4163 6.89168C82.0046 7.27539 82.6953 7.50562 83.386 7.50562C84 7.50562 84.6139 7.32655 85.1511 7.01958L96.2533 15.6404C95.2556 17.1497 94.744 18.9148 94.7696 20.731C94.7952 22.5473 95.3579 24.2868 96.4068 25.7705L93.0301 29.1472C92.7487 29.0704 92.4673 29.0193 92.1859 29.0193C91.5975 29.0193 91.0347 29.1983 90.5487 29.5053C90.0627 29.8379 89.7045 30.2727 89.4743 30.8099C89.2441 31.3471 89.1929 31.9355 89.3208 32.4983C89.4231 33.0611 89.7045 33.5983 90.1138 34.0076C90.5231 34.4169 91.0347 34.6983 91.6231 34.8006C92.1859 34.9029 92.7743 34.8517 93.3115 34.6471C93.8487 34.4169 94.3091 34.0587 94.6161 33.5727C94.9486 33.0867 95.1021 32.5239 95.1021 31.9355C95.1021 31.6541 95.051 31.3727 94.9742 31.0913L98.2998 27.7658C99.3997 28.61 100.653 29.1728 102.009 29.4541C103.365 29.7355 104.746 29.6844 106.076 29.3518C107.407 28.9937 108.634 28.3542 109.683 27.4588C110.732 26.5635 111.551 25.4379 112.088 24.1845C112.625 22.931 112.881 21.5496 112.804 20.1682C112.727 18.7869 112.344 17.4566 111.679 16.2543C111.014 15.052 110.067 14.0288 108.941 13.2358C107.714 12.4428 106.435 11.9311 105.053 11.7265ZM103.672 25.2333C102.751 25.2333 101.856 24.9519 101.114 24.4658C100.346 23.9542 99.7579 23.238 99.4253 22.3938C99.0672 21.5496 98.9904 20.6287 99.1695 19.7334C99.3486 18.838 99.7835 18.0194 100.423 17.3799C101.063 16.7404 101.881 16.3055 102.776 16.1264C103.672 15.9474 104.593 16.0497 105.437 16.3822C106.281 16.7404 106.997 17.3287 107.509 18.0706C108.021 18.838 108.276 19.7334 108.276 20.6287C108.276 21.8566 107.79 23.0333 106.921 23.9031C106.076 24.7472 104.9 25.2333 103.672 25.2333Z" fill="#EF785C"/>
</g>
</svg>
